# xmcd
#
# Track frame offsets:
#	150
#	19910
#	43593
#	64637
#	78394
#	97177
#	120531
#	142364
#	164847
#	183238
#
# Disc length: 2711 seconds
#
# Revision: 1
# Processed by: cddbd v1.5.2PL0 Copyright (c) Steve Scherf et al.
# Submitted via: audiograbber 1.83.01
#
DISCID=8f0a950a
DTITLE=Miss Quincy - Like The Devil Does
DYEAR=2012
DGENRE=Blues
TTITLE0=Love Me Like The Devil Does
TTITLE1=Going Down
TTITLE2=Dirty Sunday
TTITLE3=I Want A Little Sugar In My Bowl
TTITLE4=Dangerous
TTITLE5=Til The Money Comes In
TTITLE6=Dawson City Line
TTITLE7=Silent Movie
TTITLE8=Hurricane
TTITLE9=Carmen
EXTD=(P) and © 2012 Miss Quincy. All rights reserved. Unauthorized reproduction, 
EXTD=copying and rental of this recording is prohibited by law.
EXTT0=
EXTT1=
EXTT2=
EXTT3=
EXTT4=
EXTT5=
EXTT6=
EXTT7=
EXTT8=
EXTT9=
PLAYORDER=
